%TF.GenerationSoftware,KiCad,Pcbnew,(6.0.0)*%
%TF.CreationDate,2022-06-08T16:09:46+02:00*%
%TF.ProjectId,HotPlate,486f7450-6c61-4746-952e-6b696361645f,1.0*%
%TF.SameCoordinates,Original*%
%TF.FileFunction,Other,User*%
%FSLAX46Y46*%
G04 Gerber Fmt 4.6, Leading zero omitted, Abs format (unit mm)*
G04 Created by KiCad (PCBNEW (6.0.0)) date 2022-06-08 16:09:46*
%MOMM*%
%LPD*%
G01*
G04 APERTURE LIST*
%ADD10C,0.050000*%
G04 APERTURE END LIST*
D10*
%TO.C,LMT1*%
X13686500Y-92068500D02*
X13686500Y-100831500D01*
X13686500Y-92068500D02*
X13686500Y-100831500D01*
X6193500Y-100831500D02*
X6193500Y-92068500D01*
X6193500Y-92068500D02*
X13686500Y-92068500D01*
X6193500Y-92068500D02*
X13686500Y-92068500D01*
X13686500Y-100831500D02*
X6193500Y-100831500D01*
X13686500Y-100831500D02*
X6193500Y-100831500D01*
X6193500Y-100831500D02*
X6193500Y-92068500D01*
%TO.C,H8*%
X111934648Y-162120000D02*
G75*
G03*
X111934648Y-162120000I-8650000J0D01*
G01*
%TO.C,RGBLED1*%
X5652500Y-148080000D02*
X12952500Y-148080000D01*
X12952500Y-148080000D02*
X12952500Y-142580000D01*
X5652500Y-142580000D02*
X5652500Y-148080000D01*
X12952500Y-142580000D02*
X5652500Y-142580000D01*
%TO.C,H1*%
X25914648Y-166030000D02*
G75*
G03*
X25914648Y-166030000I-3450000J0D01*
G01*
%TO.C,LMT2*%
X106490625Y-22628500D02*
X106490625Y-31391500D01*
X106490625Y-22628500D02*
X106490625Y-31391500D01*
X98997625Y-31391500D02*
X98997625Y-22628500D01*
X98997625Y-22628500D02*
X106490625Y-22628500D01*
X106490625Y-31391500D02*
X98997625Y-31391500D01*
X98997625Y-31391500D02*
X98997625Y-22628500D01*
X98997625Y-22628500D02*
X106490625Y-22628500D01*
X106490625Y-31391500D02*
X98997625Y-31391500D01*
%TO.C,H5*%
X18664648Y-162340000D02*
G75*
G03*
X18664648Y-162340000I-8650000J0D01*
G01*
%TO.C,PC3*%
X88510000Y-135040000D02*
X90810000Y-135040000D01*
X90810000Y-140000000D02*
X88510000Y-140000000D01*
X90810000Y-135040000D02*
X90810000Y-140000000D01*
X88510000Y-140000000D02*
X88510000Y-135040000D01*
%TO.C,H6*%
X111910000Y-9740000D02*
G75*
G03*
X111910000Y-9740000I-8650000J0D01*
G01*
%TO.C,H3*%
X26024648Y-130010000D02*
G75*
G03*
X26024648Y-130010000I-3450000J0D01*
G01*
%TO.C,H4*%
X94434648Y-130140000D02*
G75*
G03*
X94434648Y-130140000I-3450000J0D01*
G01*
%TO.C,J11*%
X92240000Y-142210000D02*
X85640000Y-142210000D01*
X85640000Y-142210000D02*
X85640000Y-153810000D01*
X85640000Y-153810000D02*
X92240000Y-153810000D01*
X92240000Y-153810000D02*
X92240000Y-142210000D01*
%TO.C,H2*%
X94404648Y-166150000D02*
G75*
G03*
X94404648Y-166150000I-3450000J0D01*
G01*
%TO.C,HD1*%
X85100000Y-139790000D02*
X87400000Y-139790000D01*
X87400000Y-135090000D02*
X87400000Y-139790000D01*
X85100000Y-135090000D02*
X87400000Y-135090000D01*
X85100000Y-139790000D02*
X85100000Y-135090000D01*
%TO.C,J2*%
X58245000Y-168359500D02*
X51895000Y-168359500D01*
X51895000Y-168359500D02*
X51895000Y-171280500D01*
X51895000Y-171280500D02*
X58245000Y-171280500D01*
X58245000Y-171280500D02*
X58245000Y-168359500D01*
%TD*%
M02*
