%TF.GenerationSoftware,KiCad,Pcbnew,(6.0.0)*%
%TF.CreationDate,2022-06-08T16:09:46+02:00*%
%TF.ProjectId,HotPlate,486f7450-6c61-4746-952e-6b696361645f,1.0*%
%TF.SameCoordinates,Original*%
%TF.FileFunction,Copper,L1,Top*%
%TF.FilePolarity,Positive*%
%FSLAX46Y46*%
G04 Gerber Fmt 4.6, Leading zero omitted, Abs format (unit mm)*
G04 Created by KiCad (PCBNEW (6.0.0)) date 2022-06-08 16:09:46*
%MOMM*%
%LPD*%
G01*
G04 APERTURE LIST*
G04 Aperture macros list*
%AMRoundRect*
0 Rectangle with rounded corners*
0 $1 Rounding radius*
0 $2 $3 $4 $5 $6 $7 $8 $9 X,Y pos of 4 corners*
0 Add a 4 corners polygon primitive as box body*
4,1,4,$2,$3,$4,$5,$6,$7,$8,$9,$2,$3,0*
0 Add four circle primitives for the rounded corners*
1,1,$1+$1,$2,$3*
1,1,$1+$1,$4,$5*
1,1,$1+$1,$6,$7*
1,1,$1+$1,$8,$9*
0 Add four rect primitives between the rounded corners*
20,1,$1+$1,$2,$3,$4,$5,0*
20,1,$1+$1,$4,$5,$6,$7,0*
20,1,$1+$1,$6,$7,$8,$9,0*
20,1,$1+$1,$8,$9,$2,$3,0*%
G04 Aperture macros list end*
%TA.AperFunction,ComponentPad*%
%ADD10R,1.524000X1.016000*%
%TD*%
%TA.AperFunction,ComponentPad*%
%ADD11O,1.524000X1.016000*%
%TD*%
%TA.AperFunction,SMDPad,CuDef*%
%ADD12R,2.000000X1.100000*%
%TD*%
%TA.AperFunction,SMDPad,CuDef*%
%ADD13RoundRect,0.250000X0.650000X-0.412500X0.650000X0.412500X-0.650000X0.412500X-0.650000X-0.412500X0*%
%TD*%
%TA.AperFunction,SMDPad,CuDef*%
%ADD14R,1.000000X0.400000*%
%TD*%
%TA.AperFunction,SMDPad,CuDef*%
%ADD15R,1.300000X2.000000*%
%TD*%
%TA.AperFunction,SMDPad,CuDef*%
%ADD16R,1.200000X0.900000*%
%TD*%
%TA.AperFunction,ComponentPad*%
%ADD17R,3.500000X3.500000*%
%TD*%
%TA.AperFunction,ComponentPad*%
%ADD18RoundRect,0.750000X0.750000X1.000000X-0.750000X1.000000X-0.750000X-1.000000X0.750000X-1.000000X0*%
%TD*%
%TA.AperFunction,ComponentPad*%
%ADD19RoundRect,0.875000X0.875000X0.875000X-0.875000X0.875000X-0.875000X-0.875000X0.875000X-0.875000X0*%
%TD*%
%TA.AperFunction,SMDPad,CuDef*%
%ADD20O,0.800000X1.500000*%
%TD*%
%TA.AperFunction,ViaPad*%
%ADD21C,0.800000*%
%TD*%
%TA.AperFunction,ViaPad*%
%ADD22C,1.000000*%
%TD*%
%TA.AperFunction,ViaPad*%
%ADD23C,3.000000*%
%TD*%
%TA.AperFunction,ViaPad*%
%ADD24C,2.000000*%
%TD*%
%TA.AperFunction,ViaPad*%
%ADD25C,0.610000*%
%TD*%
%TA.AperFunction,Conductor*%
%ADD26C,0.400000*%
%TD*%
%TA.AperFunction,Conductor*%
%ADD27C,1.000000*%
%TD*%
%TA.AperFunction,Conductor*%
%ADD28C,2.600000*%
%TD*%
%TA.AperFunction,Conductor*%
%ADD29C,1.400000*%
%TD*%
%TA.AperFunction,Conductor*%
%ADD30C,1.600000*%
%TD*%
%TA.AperFunction,Conductor*%
%ADD31C,2.000000*%
%TD*%
%TA.AperFunction,Conductor*%
%ADD32C,1.800000*%
%TD*%
%TA.AperFunction,Conductor*%
%ADD33C,2.300000*%
%TD*%
G04 APERTURE END LIST*
D10*
%TO.P,LMT1,1,VDD*%
%TO.N,/3V3*%
X10605000Y-98060000D03*
D11*
%TO.P,LMT1,2,OUT*%
%TO.N,/IO13_TempData*%
X10575000Y-96450000D03*
%TO.P,LMT1,3,GND*%
%TO.N,/GND*%
X10635000Y-94730000D03*
%TD*%
D12*
%TO.P,RGBLED1,1,RK*%
%TO.N,Net-(LEDR3-Pad1)*%
X11702500Y-147030000D03*
%TO.P,RGBLED1,2,GK*%
%TO.N,Net-(LEDR2-Pad1)*%
X11702500Y-145330000D03*
%TO.P,RGBLED1,3,BK*%
%TO.N,Net-(LEDR1-Pad1)*%
X11702500Y-143630000D03*
%TO.P,RGBLED1,4,BA*%
%TO.N,/GND*%
X6902500Y-143630000D03*
%TO.P,RGBLED1,5,GA*%
X6902500Y-145330000D03*
%TO.P,RGBLED1,6,RA*%
X6902500Y-147030000D03*
%TD*%
D10*
%TO.P,LMT2,1,VDD*%
%TO.N,/3V3*%
X102079125Y-25400000D03*
D11*
%TO.P,LMT2,2,OUT*%
%TO.N,/IO15_TempData*%
X102109125Y-27010000D03*
%TO.P,LMT2,3,GND*%
%TO.N,/GND*%
X102049125Y-28730000D03*
%TD*%
D13*
%TO.P,PC3,1*%
%TO.N,Element*%
X89660000Y-139082500D03*
%TO.P,PC3,2*%
X89660000Y-135957500D03*
%TD*%
D14*
%TO.P,J11,1,Pin_1*%
%TO.N,/5V0*%
X91240000Y-146510000D03*
%TO.P,J11,2,Pin_2*%
%TO.N,/IO17_UD2TX_NexRX*%
X91240000Y-147510000D03*
%TO.P,J11,3,Pin_3*%
%TO.N,/IO16_UD2RX_NexTX*%
X91240000Y-148510000D03*
%TO.P,J11,4,Pin_4*%
%TO.N,/GND*%
X91240000Y-149510000D03*
D15*
%TO.P,J11,MP*%
%TO.N,N/C*%
X88540000Y-152310000D03*
X88540000Y-143710000D03*
%TD*%
D16*
%TO.P,HD1,1,K*%
%TO.N,Element*%
X86250000Y-139090000D03*
%TO.P,HD1,2,A*%
X86250000Y-135790000D03*
%TD*%
D17*
%TO.P,J1,1*%
%TO.N,Net-(5A1-Pad2)*%
X98320000Y-132252500D03*
D18*
%TO.P,J1,2*%
%TO.N,/GND*%
X104320000Y-132252500D03*
D19*
%TO.P,J1,3*%
X101320000Y-136952500D03*
%TD*%
D20*
%TO.P,J2,5,Pin_5*%
%TO.N,/RST_EN_RTS*%
X56975000Y-170149500D03*
%TO.P,J2,6,Pin_6*%
%TO.N,/IO0_BOOT_DTR*%
X55705000Y-170149500D03*
%TO.P,J2,7,Pin_7*%
%TO.N,unconnected-(J2-Pad7)*%
X54435000Y-170149500D03*
%TO.P,J2,8,Pin_8*%
%TO.N,unconnected-(J2-Pad8)*%
X53165000Y-170149500D03*
%TD*%
D21*
%TO.N,/5V0*%
X89920000Y-146520000D03*
%TO.N,/VIN-D*%
X68980000Y-146040000D03*
X71520000Y-149600000D03*
%TO.N,/GND*%
X99050000Y-149560000D03*
X54400000Y-164660000D03*
D22*
X66390000Y-148970000D03*
D21*
X23614648Y-138980000D03*
X42264648Y-162160000D03*
D22*
X78360000Y-147860000D03*
D21*
X38834648Y-140370000D03*
X45380000Y-167520000D03*
X90020000Y-149530000D03*
D22*
X78860000Y-156240000D03*
D21*
X41119648Y-143395000D03*
D23*
X33619648Y-154680000D03*
D21*
X22015000Y-159215000D03*
X13617852Y-150050000D03*
D24*
X95730000Y-141910000D03*
D21*
X74990000Y-147700000D03*
X58280000Y-154490000D03*
X55360000Y-157490000D03*
X42160000Y-168500000D03*
X109500000Y-29710000D03*
X110770000Y-121450000D03*
%TO.N,/3V3*%
X45890000Y-164860000D03*
X35660000Y-168750000D03*
X62850000Y-152850000D03*
X109510000Y-121520000D03*
X20310000Y-137640000D03*
%TO.N,/RST_EN_RTS*%
X50880000Y-165650000D03*
%TO.N,/IO13_TempData*%
X21510000Y-150180000D03*
%TO.N,/IO0_BOOT_DTR*%
X52160000Y-166850000D03*
%TO.N,/IO16_UD2RX_NexTX*%
X77480000Y-144240000D03*
%TO.N,/IO17_UD2TX_NexRX*%
X78430000Y-145070000D03*
%TO.N,Net-(LEDR1-Pad1)*%
X13382500Y-143570000D03*
%TO.N,Net-(LEDR2-Pad1)*%
X13442500Y-145300000D03*
%TO.N,Net-(LEDR3-Pad1)*%
X13472500Y-147070000D03*
%TO.N,/IO19_Gate*%
X43544648Y-149680000D03*
D25*
X57779648Y-151232500D03*
D21*
X34369648Y-149555000D03*
D25*
X82670000Y-142220000D03*
D21*
%TO.N,/IO14_LEDG*%
X17480000Y-152850000D03*
X25940000Y-160310000D03*
%TO.N,/IO12_LEDB*%
X23570000Y-161970000D03*
X17470000Y-154080000D03*
%TO.N,/IO15_TempData*%
X75130000Y-143410000D03*
X108430000Y-121580000D03*
%TO.N,/IO27_LEDR*%
X17450000Y-151570000D03*
X27205000Y-157805000D03*
D24*
%TO.N,Element*%
X79059648Y-130515000D03*
X92520000Y-144490000D03*
X81739648Y-130375000D03*
X78989648Y-133615000D03*
X81819648Y-133545000D03*
D21*
%TO.N,Net-(D1-Pad2)*%
X54370000Y-163390000D03*
X85485000Y-155855000D03*
%TD*%
D26*
%TO.N,/5V0*%
X89930000Y-146510000D02*
X89920000Y-146520000D01*
X91240000Y-146510000D02*
X89930000Y-146510000D01*
%TO.N,/VIN-D*%
X68980000Y-146040000D02*
X69850000Y-146040000D01*
X69850000Y-146040000D02*
X71520000Y-147710000D01*
X71520000Y-147710000D02*
X71520000Y-149600000D01*
%TO.N,/GND*%
X38729648Y-140485000D02*
X38799648Y-140415000D01*
X7952500Y-150040000D02*
X13592500Y-150040000D01*
X110770000Y-121450000D02*
X110730000Y-121490000D01*
X106230000Y-29710000D02*
X105250000Y-28730000D01*
D27*
X78360000Y-155740000D02*
X78860000Y-156240000D01*
D26*
X42264648Y-162160000D02*
X37109296Y-162160000D01*
X57060000Y-154490000D02*
X58280000Y-154490000D01*
X110730000Y-133020000D02*
X110730000Y-137810000D01*
X33339648Y-143395000D02*
X28924648Y-138980000D01*
X42220000Y-168620000D02*
X42220000Y-162080000D01*
X49960000Y-164660000D02*
X47100000Y-167520000D01*
D27*
X78360000Y-151260000D02*
X68700000Y-151260000D01*
X78360000Y-151260000D02*
X78360000Y-151820000D01*
X6892500Y-143650000D02*
X6892500Y-147050000D01*
D26*
X47100000Y-167520000D02*
X45380000Y-167520000D01*
X55360000Y-156190000D02*
X57060000Y-154490000D01*
D27*
X101320000Y-140150000D02*
X101320000Y-136952500D01*
D26*
X28924648Y-138980000D02*
X23614648Y-138980000D01*
X54400000Y-164660000D02*
X49960000Y-164660000D01*
X105250000Y-28730000D02*
X102049125Y-28730000D01*
X106230000Y-29710000D02*
X109500000Y-29710000D01*
D27*
X68700000Y-151260000D02*
X66400000Y-148960000D01*
D26*
X37109296Y-162160000D02*
X33619648Y-158670352D01*
X91240000Y-149510000D02*
X90160000Y-149510000D01*
X33619648Y-158670352D02*
X33619648Y-154680000D01*
X38799648Y-140415000D02*
X38834648Y-140380000D01*
X110730000Y-137810000D02*
X98960000Y-149580000D01*
X6902500Y-147030000D02*
X6902500Y-148990000D01*
D27*
X78360000Y-149620000D02*
X78360000Y-151260000D01*
D26*
X33075000Y-159215000D02*
X33619648Y-158670352D01*
D27*
X95730000Y-141910000D02*
X99560000Y-141910000D01*
X99560000Y-141910000D02*
X101320000Y-140150000D01*
D26*
X6902500Y-148990000D02*
X7952500Y-150040000D01*
X42134648Y-162250000D02*
X42204648Y-162180000D01*
X41119648Y-143395000D02*
X38729648Y-143395000D01*
X110730000Y-121490000D02*
X110730000Y-133020000D01*
X22015000Y-159215000D02*
X33075000Y-159215000D01*
X38729648Y-143395000D02*
X38729648Y-140485000D01*
D27*
X78360000Y-149620000D02*
X78360000Y-155740000D01*
X78360000Y-147860000D02*
X78360000Y-149620000D01*
D26*
X55360000Y-157490000D02*
X55360000Y-156190000D01*
X38729648Y-143395000D02*
X33339648Y-143395000D01*
%TO.N,/3V3*%
X45350000Y-164860000D02*
X44010000Y-166200000D01*
X62629648Y-152882500D02*
X60252148Y-152882500D01*
X44010000Y-166200000D02*
X44010000Y-168520000D01*
X46400000Y-164350000D02*
X46400000Y-152790000D01*
X20345000Y-137605000D02*
X20310000Y-137640000D01*
X109490000Y-137090000D02*
X109490000Y-121540000D01*
X44010000Y-168520000D02*
X43080000Y-169450000D01*
X43080000Y-169450000D02*
X36360000Y-169450000D01*
X43839648Y-137605000D02*
X20345000Y-137605000D01*
X45890000Y-164860000D02*
X45350000Y-164860000D01*
X60252148Y-152882500D02*
X59909648Y-152882500D01*
X46400000Y-152790000D02*
X46400000Y-140165352D01*
X46492500Y-152882500D02*
X46400000Y-152790000D01*
X73290000Y-152850000D02*
X77930000Y-157490000D01*
X77930000Y-157490000D02*
X79590000Y-157490000D01*
X82290000Y-154790000D02*
X91790000Y-154790000D01*
X46400000Y-140165352D02*
X43839648Y-137605000D01*
X36360000Y-169450000D02*
X35660000Y-168750000D01*
X45890000Y-164860000D02*
X46400000Y-164350000D01*
X79590000Y-157490000D02*
X82290000Y-154790000D01*
X109490000Y-121540000D02*
X109510000Y-121520000D01*
X102360000Y-25490000D02*
X102290000Y-25560000D01*
X91790000Y-154790000D02*
X109490000Y-137090000D01*
X60252148Y-152882500D02*
X46492500Y-152882500D01*
X62850000Y-152850000D02*
X73290000Y-152850000D01*
%TO.N,/RST_EN_RTS*%
X50900000Y-165630000D02*
X50880000Y-165650000D01*
X56975000Y-167765000D02*
X54840000Y-165630000D01*
X54840000Y-165630000D02*
X50900000Y-165630000D01*
X56975000Y-170149500D02*
X56975000Y-167765000D01*
%TO.N,/IO13_TempData*%
X18205352Y-141895352D02*
X18685000Y-142375000D01*
X2870000Y-98790000D02*
X4340000Y-97320000D01*
X12225352Y-141895352D02*
X9290000Y-138960000D01*
X21460000Y-145150000D02*
X21460000Y-150170000D01*
X2870000Y-132540000D02*
X2870000Y-98790000D01*
X14155352Y-141895352D02*
X12225352Y-141895352D01*
X14155352Y-141895352D02*
X18205352Y-141895352D01*
X4340000Y-97320000D02*
X4840000Y-96820000D01*
X10260000Y-96820000D02*
X10350000Y-96730000D01*
X9290000Y-138960000D02*
X2870000Y-132540000D01*
X18685000Y-142375000D02*
X21460000Y-145150000D01*
X9290000Y-138960000D02*
X8340000Y-138010000D01*
X4840000Y-96820000D02*
X10260000Y-96820000D01*
%TO.N,/IO0_BOOT_DTR*%
X55705000Y-170149500D02*
X55705000Y-167965000D01*
X54570000Y-166830000D02*
X52220000Y-166830000D01*
X55705000Y-167965000D02*
X54570000Y-166830000D01*
%TO.N,/IO16_UD2RX_NexTX*%
X81437324Y-145912676D02*
X81222324Y-145697676D01*
X81437324Y-145912676D02*
X82924648Y-147400000D01*
X85180000Y-147570000D02*
X84684648Y-147570000D01*
X81222324Y-145697676D02*
X80474648Y-144950000D01*
X84684648Y-147570000D02*
X84434648Y-147570000D01*
X85180000Y-147570000D02*
X89000000Y-147570000D01*
X89950000Y-148520000D02*
X91230000Y-148520000D01*
X91230000Y-148520000D02*
X91240000Y-148510000D01*
X89000000Y-147570000D02*
X89950000Y-148520000D01*
X80922324Y-145397676D02*
X81437324Y-145912676D01*
X80634648Y-145110000D02*
X80922324Y-145397676D01*
X83094648Y-147570000D02*
X82924648Y-147400000D01*
X81222324Y-145697676D02*
X79764648Y-144240000D01*
X85180000Y-147570000D02*
X83080000Y-147570000D01*
X79764648Y-144240000D02*
X77480000Y-144240000D01*
X84684648Y-147570000D02*
X83094648Y-147570000D01*
%TO.N,/IO17_UD2TX_NexRX*%
X92480000Y-147930000D02*
X92480000Y-150240000D01*
X79424648Y-145070000D02*
X78430000Y-145070000D01*
X87450000Y-148570000D02*
X82924648Y-148570000D01*
X92060000Y-147510000D02*
X92480000Y-147930000D01*
X81232324Y-146877676D02*
X81157324Y-146802676D01*
X81157324Y-146802676D02*
X80654648Y-146300000D01*
X82924648Y-148570000D02*
X81232324Y-146877676D01*
X80734648Y-146380000D02*
X80730000Y-146380000D01*
X81157324Y-146802676D02*
X80734648Y-146380000D01*
X91240000Y-147510000D02*
X92060000Y-147510000D01*
X92480000Y-150240000D02*
X91760000Y-150960000D01*
X91760000Y-150960000D02*
X89840000Y-150960000D01*
X81232324Y-146877676D02*
X79424648Y-145070000D01*
X89840000Y-150960000D02*
X87450000Y-148570000D01*
%TO.N,Net-(LEDR1-Pad1)*%
X11702500Y-143630000D02*
X13412500Y-143630000D01*
%TO.N,Net-(LEDR2-Pad1)*%
X13442500Y-145300000D02*
X11732500Y-145300000D01*
X11732500Y-145300000D02*
X11702500Y-145330000D01*
%TO.N,Net-(LEDR3-Pad1)*%
X11702500Y-147030000D02*
X13432500Y-147030000D01*
%TO.N,/IO19_Gate*%
X75450000Y-142520000D02*
X82400000Y-142520000D01*
X66492148Y-142520000D02*
X57779648Y-151232500D01*
X34494648Y-149680000D02*
X34369648Y-149555000D01*
X72204648Y-142520000D02*
X75450000Y-142520000D01*
X43544648Y-149680000D02*
X34494648Y-149680000D01*
X82400000Y-142520000D02*
X82670000Y-142250000D01*
X75450000Y-142520000D02*
X66492148Y-142520000D01*
%TO.N,/IO14_LEDG*%
X20140000Y-155510000D02*
X17480000Y-152850000D01*
X25940000Y-160310000D02*
X21490000Y-160310000D01*
X20140000Y-156930000D02*
X20140000Y-155510000D01*
X21490000Y-160310000D02*
X20140000Y-158960000D01*
X20140000Y-158960000D02*
X20140000Y-156930000D01*
%TO.N,/IO12_LEDB*%
X19450000Y-156060000D02*
X17340000Y-153950000D01*
X19450000Y-159290000D02*
X19450000Y-156060000D01*
X23570000Y-161970000D02*
X22130000Y-161970000D01*
X22130000Y-161970000D02*
X19450000Y-159290000D01*
%TO.N,/IO15_TempData*%
X75470000Y-143640000D02*
X78050000Y-146220000D01*
X78050000Y-146220000D02*
X78960000Y-146220000D01*
X91550000Y-154170000D02*
X108440000Y-137280000D01*
X86910000Y-154170000D02*
X91550000Y-154170000D01*
X108440000Y-121590000D02*
X108430000Y-121580000D01*
X78960000Y-146220000D02*
X86910000Y-154170000D01*
X108440000Y-137280000D02*
X108440000Y-121590000D01*
%TO.N,/IO27_LEDR*%
X27205000Y-157805000D02*
X27205000Y-157765000D01*
X18470000Y-151570000D02*
X17450000Y-151570000D01*
X25090000Y-155650000D02*
X22550000Y-155650000D01*
X27205000Y-157765000D02*
X25090000Y-155650000D01*
X22550000Y-155650000D02*
X18470000Y-151570000D01*
D28*
%TO.N,Element*%
X76120000Y-120880000D02*
X90390000Y-120880000D01*
D29*
X86250000Y-135790000D02*
X89492500Y-135790000D01*
D30*
X72050000Y-136830000D02*
X72050000Y-129440000D01*
D28*
X78890000Y-117600000D02*
X74780000Y-117600000D01*
D29*
X82759648Y-134665000D02*
X82759648Y-134185000D01*
D28*
X78900000Y-5820000D02*
X78900000Y-117600000D01*
D29*
X89652500Y-139090000D02*
X89660000Y-139082500D01*
X79460858Y-131297555D02*
X79258858Y-131095555D01*
X78164648Y-133620000D02*
X79694648Y-133620000D01*
X78159648Y-133245000D02*
X78159648Y-134655000D01*
D28*
X29575000Y-5800000D02*
X29575000Y-117580000D01*
X62465000Y-5800000D02*
X62465000Y-117580000D01*
X50120000Y-5790000D02*
X46010000Y-5790000D01*
X54245000Y-5810000D02*
X54245000Y-117590000D01*
D29*
X78164648Y-129220000D02*
X78259648Y-129125000D01*
D28*
X46015000Y-5780000D02*
X46015000Y-117560000D01*
X23150000Y-121060000D02*
X70850000Y-121060000D01*
D29*
X74310000Y-139090000D02*
X72050000Y-136830000D01*
X82074648Y-131520000D02*
X82759648Y-132205000D01*
D28*
X83000000Y-5820000D02*
X83000000Y-117600000D01*
X87120000Y-5790000D02*
X87120000Y-117570000D01*
D31*
X77185000Y-130515000D02*
X75150000Y-128480000D01*
D29*
X87100000Y-139090000D02*
X74310000Y-139090000D01*
D28*
X62455000Y-117580000D02*
X58345000Y-117580000D01*
D29*
X78164648Y-132189765D02*
X78164648Y-131520000D01*
X81010438Y-130405790D02*
X82660438Y-130405790D01*
D28*
X87110000Y-117570000D02*
X83000000Y-117570000D01*
X74780000Y-5820000D02*
X74780000Y-117600000D01*
X74775000Y-5830000D02*
X70665000Y-5830000D01*
X37795000Y-5790000D02*
X37795000Y-117570000D01*
D32*
X72050000Y-122260000D02*
X72050000Y-129440000D01*
D28*
X70850000Y-121060000D02*
X70970000Y-121180000D01*
D29*
X78164648Y-131520000D02*
X82074648Y-131520000D01*
D28*
X90390000Y-120880000D02*
X91230000Y-120040000D01*
D29*
X82759648Y-134185000D02*
X82759648Y-129125000D01*
X79279648Y-132555000D02*
X82199648Y-132555000D01*
D28*
X91230000Y-120040000D02*
X91230000Y-5790000D01*
D29*
X78164648Y-131520000D02*
X78164648Y-129220000D01*
X79258858Y-130405790D02*
X81010438Y-130405790D01*
X92520000Y-141930000D02*
X92520000Y-144490000D01*
X84005000Y-133545000D02*
X86250000Y-135790000D01*
X82660438Y-130405790D02*
X82759648Y-130505000D01*
D28*
X29565000Y-117580000D02*
X25455000Y-117580000D01*
X21355000Y-119265000D02*
X23150000Y-121060000D01*
X91230000Y-5790000D02*
X87120000Y-5790000D01*
D29*
X78164648Y-133620000D02*
X78164648Y-132189765D01*
X89672500Y-139082500D02*
X92520000Y-141930000D01*
D28*
X33675000Y-5800000D02*
X33675000Y-117580000D01*
D29*
X79694648Y-133620000D02*
X81504648Y-133620000D01*
D28*
X37790000Y-117560000D02*
X33680000Y-117560000D01*
X21355000Y-5810000D02*
X21355000Y-119265000D01*
X46005000Y-117560000D02*
X41895000Y-117560000D01*
D29*
X89660000Y-139082500D02*
X89672500Y-139082500D01*
X78259648Y-129125000D02*
X82759648Y-129125000D01*
D28*
X25455000Y-5800000D02*
X25455000Y-117580000D01*
D29*
X82199648Y-132555000D02*
X82759648Y-133115000D01*
X79258858Y-131095555D02*
X79258858Y-130844210D01*
D28*
X83005000Y-5830000D02*
X78895000Y-5830000D01*
X41895000Y-5780000D02*
X41895000Y-117560000D01*
D29*
X82759648Y-130505000D02*
X82759648Y-132205000D01*
D28*
X50115000Y-5780000D02*
X50115000Y-117560000D01*
X58340000Y-5810000D02*
X54230000Y-5810000D01*
D29*
X81504648Y-133620000D02*
X82194648Y-133620000D01*
D28*
X41890000Y-5790000D02*
X37780000Y-5790000D01*
D29*
X78249648Y-134665000D02*
X78164648Y-134580000D01*
X82759648Y-129125000D02*
X82759648Y-130505000D01*
X81819648Y-133545000D02*
X84005000Y-133545000D01*
X79258858Y-131095555D02*
X78164648Y-132189765D01*
X79258858Y-130844210D02*
X79258858Y-130405790D01*
X86250000Y-139090000D02*
X87100000Y-139090000D01*
X82194648Y-133620000D02*
X82759648Y-134185000D01*
X82759648Y-134665000D02*
X78249648Y-134665000D01*
D28*
X70680000Y-5830000D02*
X70680000Y-117610000D01*
X58345000Y-5800000D02*
X58345000Y-117580000D01*
D31*
X79059648Y-130515000D02*
X77185000Y-130515000D01*
X75150000Y-128480000D02*
X75150000Y-121850000D01*
D33*
X70970000Y-121180000D02*
X72050000Y-122260000D01*
D28*
X70675000Y-117600000D02*
X66565000Y-117600000D01*
X25450000Y-5810000D02*
X21340000Y-5810000D01*
D29*
X87100000Y-139090000D02*
X89652500Y-139090000D01*
D33*
X75150000Y-121850000D02*
X76120000Y-120880000D01*
D29*
X82759648Y-132205000D02*
X82759648Y-133115000D01*
D28*
X66565000Y-5800000D02*
X66565000Y-117580000D01*
X54240000Y-117580000D02*
X50130000Y-117580000D01*
X66570000Y-5810000D02*
X62460000Y-5810000D01*
X33680000Y-5810000D02*
X29570000Y-5810000D01*
D26*
%TO.N,Net-(D1-Pad2)*%
X60750000Y-153820000D02*
X54370000Y-160200000D01*
X54370000Y-160200000D02*
X54370000Y-163390000D01*
X80000000Y-158110000D02*
X77560000Y-158110000D01*
X85485000Y-155855000D02*
X82255000Y-155855000D01*
X73270000Y-153820000D02*
X60750000Y-153820000D01*
X77560000Y-158110000D02*
X73270000Y-153820000D01*
X82255000Y-155855000D02*
X80000000Y-158110000D01*
%TD*%
M02*
