%TF.GenerationSoftware,KiCad,Pcbnew,(6.0.0)*%
%TF.CreationDate,2022-06-08T16:09:46+02:00*%
%TF.ProjectId,HotPlate,486f7450-6c61-4746-952e-6b696361645f,1.0*%
%TF.SameCoordinates,Original*%
%TF.FileFunction,Paste,Bot*%
%TF.FilePolarity,Positive*%
%FSLAX46Y46*%
G04 Gerber Fmt 4.6, Leading zero omitted, Abs format (unit mm)*
G04 Created by KiCad (PCBNEW (6.0.0)) date 2022-06-08 16:09:46*
%MOMM*%
%LPD*%
G01*
G04 APERTURE LIST*
G04 Aperture macros list*
%AMRoundRect*
0 Rectangle with rounded corners*
0 $1 Rounding radius*
0 $2 $3 $4 $5 $6 $7 $8 $9 X,Y pos of 4 corners*
0 Add a 4 corners polygon primitive as box body*
4,1,4,$2,$3,$4,$5,$6,$7,$8,$9,$2,$3,0*
0 Add four circle primitives for the rounded corners*
1,1,$1+$1,$2,$3*
1,1,$1+$1,$4,$5*
1,1,$1+$1,$6,$7*
1,1,$1+$1,$8,$9*
0 Add four rect primitives between the rounded corners*
20,1,$1+$1,$2,$3,$4,$5,0*
20,1,$1+$1,$4,$5,$6,$7,0*
20,1,$1+$1,$6,$7,$8,$9,0*
20,1,$1+$1,$8,$9,$2,$3,0*%
G04 Aperture macros list end*
%ADD10RoundRect,0.250000X0.312500X0.625000X-0.312500X0.625000X-0.312500X-0.625000X0.312500X-0.625000X0*%
%ADD11RoundRect,0.250000X-0.412500X-0.650000X0.412500X-0.650000X0.412500X0.650000X-0.412500X0.650000X0*%
%ADD12RoundRect,0.250000X0.325000X0.650000X-0.325000X0.650000X-0.325000X-0.650000X0.325000X-0.650000X0*%
%ADD13R,2.750000X3.050000*%
%ADD14R,1.200000X2.200000*%
%ADD15RoundRect,0.250000X0.412500X0.650000X-0.412500X0.650000X-0.412500X-0.650000X0.412500X-0.650000X0*%
%ADD16RoundRect,0.200000X-0.200000X-0.800000X0.200000X-0.800000X0.200000X0.800000X-0.200000X0.800000X0*%
%ADD17RoundRect,0.250001X-1.074999X0.462499X-1.074999X-0.462499X1.074999X-0.462499X1.074999X0.462499X0*%
%ADD18RoundRect,0.250000X0.650000X-0.325000X0.650000X0.325000X-0.650000X0.325000X-0.650000X-0.325000X0*%
%ADD19R,1.500000X2.000000*%
%ADD20R,3.800000X2.000000*%
%ADD21RoundRect,0.250000X0.650000X-0.412500X0.650000X0.412500X-0.650000X0.412500X-0.650000X-0.412500X0*%
%ADD22RoundRect,0.250000X-0.650000X0.325000X-0.650000X-0.325000X0.650000X-0.325000X0.650000X0.325000X0*%
%ADD23R,1.100000X1.100000*%
%ADD24R,0.900000X2.000000*%
%ADD25R,2.000000X0.900000*%
%ADD26R,5.000000X5.000000*%
%ADD27RoundRect,0.250000X-0.650000X0.412500X-0.650000X-0.412500X0.650000X-0.412500X0.650000X0.412500X0*%
%ADD28RoundRect,0.250000X-1.950000X-1.000000X1.950000X-1.000000X1.950000X1.000000X-1.950000X1.000000X0*%
%ADD29RoundRect,0.250000X0.625000X-0.375000X0.625000X0.375000X-0.625000X0.375000X-0.625000X-0.375000X0*%
%ADD30RoundRect,0.250000X0.625000X-0.312500X0.625000X0.312500X-0.625000X0.312500X-0.625000X-0.312500X0*%
%ADD31R,2.195000X2.195000*%
G04 APERTURE END LIST*
D10*
%TO.C,LEDR1*%
X8575000Y-141470000D03*
X5650000Y-141470000D03*
%TD*%
D11*
%TO.C,LC1*%
X66337148Y-153642500D03*
X69462148Y-153642500D03*
%TD*%
D12*
%TO.C,ESP_RST_C1*%
X32659648Y-164780000D03*
X29709648Y-164780000D03*
%TD*%
D13*
%TO.C,UMW30N6*%
X81955000Y-133595000D03*
X78905000Y-130245000D03*
X81955000Y-130245000D03*
X78905000Y-133595000D03*
D14*
X82710000Y-138220000D03*
X78150000Y-138220000D03*
%TD*%
D11*
%TO.C,LC3*%
X66307148Y-150892500D03*
X69432148Y-150892500D03*
%TD*%
D15*
%TO.C,LC2*%
X61422500Y-155860000D03*
X58297500Y-155860000D03*
%TD*%
D16*
%TO.C,RST1*%
X29054648Y-167930000D03*
X33254648Y-167930000D03*
%TD*%
D17*
%TO.C,SMAJ18A1*%
X80500000Y-147785000D03*
X80500000Y-150760000D03*
%TD*%
%TO.C,D1*%
X87660000Y-152732500D03*
X87660000Y-155707500D03*
%TD*%
D18*
%TO.C,ESP_EN_C1*%
X38064648Y-167585000D03*
X38064648Y-164635000D03*
%TD*%
D19*
%TO.C,ZLDO1117-3.3*%
X65330000Y-156440000D03*
X67630000Y-156440000D03*
D20*
X67630000Y-162740000D03*
D19*
X69930000Y-156440000D03*
%TD*%
D21*
%TO.C,PR1*%
X67405000Y-146035000D03*
X67405000Y-142910000D03*
%TD*%
%TO.C,TC1*%
X4840000Y-98402500D03*
X4840000Y-95277500D03*
%TD*%
D22*
%TO.C,ESPC2*%
X40874648Y-164635000D03*
X40874648Y-167585000D03*
%TD*%
D10*
%TO.C,LEDR3*%
X11615000Y-148400000D03*
X8690000Y-148400000D03*
%TD*%
D22*
%TO.C,ESPC1*%
X43694648Y-164565000D03*
X43694648Y-167515000D03*
%TD*%
D23*
%TO.C,PD50*%
X73990000Y-153710000D03*
X73990000Y-150910000D03*
%TD*%
D19*
%TO.C,ZLDO1117-5.0*%
X78725352Y-160680000D03*
X81025352Y-160680000D03*
D20*
X81025352Y-166980000D03*
D19*
X83325352Y-160680000D03*
%TD*%
D24*
%TO.C,ESP32-WROOM32*%
X41175000Y-161970000D03*
X39905000Y-161970000D03*
X38635000Y-161970000D03*
X27205000Y-161970000D03*
X25935000Y-161970000D03*
X24665000Y-161970000D03*
D25*
X23665000Y-159185000D03*
X23665000Y-157915000D03*
X23665000Y-149025000D03*
D24*
X24665000Y-144970000D03*
X27205000Y-144970000D03*
X28475000Y-144970000D03*
X29745000Y-144970000D03*
X31015000Y-144970000D03*
X32285000Y-144970000D03*
X36095000Y-144970000D03*
X37365000Y-144970000D03*
X38635000Y-144970000D03*
X41175000Y-144970000D03*
D26*
X33675000Y-154470000D03*
%TD*%
D11*
%TO.C,LC7*%
X78797500Y-154610000D03*
X81922500Y-154610000D03*
%TD*%
%TO.C,LC5*%
X78782852Y-157830000D03*
X81907852Y-157830000D03*
%TD*%
D21*
%TO.C,PC2*%
X76624648Y-150852500D03*
X76624648Y-147727500D03*
%TD*%
D10*
%TO.C,LEDR2*%
X11205000Y-144780000D03*
X8280000Y-144780000D03*
%TD*%
D21*
%TO.C,PR2*%
X63995000Y-146115000D03*
X63995000Y-142990000D03*
%TD*%
D27*
%TO.C,TC2*%
X109670000Y-25137500D03*
X109670000Y-28262500D03*
%TD*%
D15*
%TO.C,LC4*%
X61492500Y-153120000D03*
X58367500Y-153120000D03*
%TD*%
D28*
%TO.C,PC1*%
X98247500Y-146970000D03*
X106647500Y-146970000D03*
%TD*%
D11*
%TO.C,HR1*%
X56587500Y-150650000D03*
X59712500Y-150650000D03*
%TD*%
D27*
%TO.C,LC6*%
X88030000Y-158617500D03*
X88030000Y-161742500D03*
%TD*%
D29*
%TO.C,5A1*%
X91710000Y-137870000D03*
X91710000Y-135070000D03*
%TD*%
D30*
%TO.C,ENR1*%
X35614648Y-167572500D03*
X35614648Y-164647500D03*
%TD*%
D31*
%TO.C,BUZZER1*%
X59974648Y-146750000D03*
X52574648Y-146750000D03*
X52574648Y-139350000D03*
%TD*%
D22*
%TO.C,ESPC4*%
X40534648Y-137445000D03*
X40534648Y-140395000D03*
%TD*%
D27*
%TO.C,LC8*%
X90680000Y-158597500D03*
X90680000Y-161722500D03*
%TD*%
M02*
