M48
; DRILL file {KiCad (6.0.0)} date Wed Jun  8 16:09:49 2022
; FORMAT={-:-/ absolute / inch / decimal}
; #@! TF.CreationDate,2022-06-08T16:09:49+02:00
; #@! TF.GenerationSoftware,Kicad,Pcbnew,(6.0.0)
; #@! TF.FileFunction,Plated,1,2,PTH
FMAT,2
INCH
; #@! TA.AperFunction,Plated,PTH,ViaDrill
T1C0.0120
; #@! TA.AperFunction,Plated,PTH,ViaDrill
T2C0.0157
; #@! TA.AperFunction,Plated,PTH,ViaDrill
T3C0.0315
; #@! TA.AperFunction,Plated,PTH,ComponentDrill
T4C0.0320
; #@! TA.AperFunction,Plated,PTH,ComponentDrill
T5C0.0394
; #@! TA.AperFunction,Plated,PTH,ViaDrill
T6C0.0591
; #@! TA.AperFunction,Plated,PTH,ViaDrill
T7C0.0984
%
G90
G05
T1
X2.2748Y-5.954
X3.2547Y-5.5992
T2
X0.5269Y-5.6524
X0.5292Y-5.7205
X0.5304Y-5.7902
X0.5361Y-5.9075
X0.687Y-5.9673
X0.6878Y-6.0661
X0.6882Y-6.0177
X0.7996Y-5.4189
X0.8469Y-5.9126
X0.8667Y-6.2683
X0.928Y-6.3768
X0.9297Y-5.4717
X1.0213Y-6.3114
X1.0711Y-6.2128
X1.3531Y-5.888
X1.4039Y-6.6437
X1.5289Y-5.5264
X1.6189Y-5.6455
X1.6598Y-6.6339
X1.664Y-6.3843
X1.7144Y-5.8929
X1.7866Y-6.5953
X1.8067Y-6.4906
X2.0031Y-6.5217
X2.0535Y-6.5689
X2.1406Y-6.4327
X2.1417Y-6.4827
X2.1795Y-6.2004
X2.2945Y-6.0823
X2.4744Y-6.0177
X2.7157Y-5.7496
X2.8157Y-5.8898
X2.9524Y-5.815
X2.9579Y-5.6461
X3.0504Y-5.6787
X3.0878Y-5.7114
X3.3656Y-6.136
X3.5402Y-5.7685
X3.5441Y-5.887
X3.8996Y-5.8882
X4.2689Y-4.7866
X4.311Y-1.1697
X4.3114Y-4.7843
X4.361Y-4.7815
T3
X2.6138Y-5.865
X3.085Y-5.8213
X3.1047Y-6.1512
T4
X0.4163Y-3.7972
X0.4175Y-3.8606
X0.4187Y-3.7295
X4.0177Y-1.1311
X4.0189Y-1.0
X4.02Y-1.0634
T6
X3.1098Y-5.2604
X3.1126Y-5.1384
X3.2181Y-5.1329
X3.2212Y-5.2577
X3.6425Y-5.6886
X3.7689Y-5.587
T7
X1.3236Y-6.0898
T5
G00X3.8709Y-5.2462
M15
G01X3.8709Y-5.1674
M16
G05
G00X4.0283Y-5.3918
M15
G01X3.9496Y-5.3918
M16
G05
G00X4.1071Y-5.2462
M15
G01X4.1071Y-5.1674
M16
G05
T0
M30
