<?xml version="1.0"?>
<svg xmlns="http://www.w3.org/2000/svg" xmlns:lc="https://librecad.org" xmlns:xlink="http://www.w3.org/1999/xlink" width="116.52149449mm" height="110.99476068mm" viewBox="0 0 116.52149449 110.99476068">
    <g lc:layername="0" lc:is_locked="false" lc:is_construction="false" fill="none" stroke="black" stroke-width="1">
        <path d="M55.07915633,60.35903214 L55.07915633,61.99199718 "/>
        <path d="M64.27016313,60.35903214 L64.27016313,62.64543677 "/>
        <path d="M53.20961421,63.76112717 L54.09988444,63.76112717 "/>
        <path d="M60.93830589,60.35903214 L60.72074626,60.46781196 "/>
        <path d="M57.50324729,65.03199996 L57.63256595,64.90420269 "/>
        <path d="M50.37550703,60.90369191 L50.26571295,61.23104562 "/>
        <path d="M58.68334345,64.39808496 L58.11383422,64.39808496 "/>
        <path d="M58.05196411,54.39135633 L58.05196411,54.20549246 L57.90464227,53.65246501 L57.57602073,53.11718718 L57.4867655,53.02818552 "/>
        <path d="M62.16531176,64.77767326 L62.22870326,64.90420269 "/>
        <path d="M60.5019188,60.68511802 L60.39364612,60.90369191 "/>
        <path d="M56.06704946,63.76112717 L55.81373703,63.76112717 "/>
        <path d="M50.37550703,62.10052343 L50.48149762,62.31782949 "/>
        <path d="M55.09158106,51.36200333 L55.09158106,51.54609225 L55.23738151,52.09937326 L55.56473522,52.63439752 L55.65576541,52.72517415 "/>
        <path d="M61.37291801,62.64543677 L61.59022408,62.53691052 "/>
        <path d="M55.73259591,62.64543677 L55.9511698,62.64543677 "/>
        <path d="M60.5019188,62.31782949 L60.72074626,62.53691052 "/>
        <path d="M57.4867655,55.75478072 L57.57602073,55.66375052 L57.90464227,55.1284727 L58.05196411,54.57569882 L58.05196411,54.39135633 "/>
        <path d="M52.15452608,65.09539146 L52.40910635,65.09539146 "/>
        <path d="M60.72074626,60.46781196 L60.5019188,60.68511802 "/>
        <path d="M50.26571295,61.77342329 L50.37550703,62.10052343 "/>
        <path d="M58.11383422,63.76112717 L58.68334345,63.76112717 "/>
        <path d="M58.28575196,51.36200333 L58.28575196,51.54609225 L58.43155241,52.09937326 L58.75915969,52.63439752 L58.84993631,52.72517415 "/>
        <path d="M52.66216522,64.90420269 L52.72530315,64.77767326 "/>
        <path d="M60.72074626,62.53691052 L60.93830589,62.64543677 "/>
        <path d="M56.80568722,63.76112717 L56.80568722,64.71428176 "/>
        <path d="M56.38603549,64.90420269 L56.2569704,65.03199996 "/>
        <path d="M63.47650155,64.39808496 L63.98388712,64.39808496 "/>
        <path d="M56.99535459,65.03199996 L57.18527552,65.09539146 "/>
        <path d="M58.84993631,49.99883252 L58.75915969,50.08808775 L58.43155241,50.62311201 L58.28575196,51.17639302 L58.28575196,51.36200333 "/>
        <path d="M59.42223478,64.39808496 L59.93114174,64.39808496 "/>
        <path d="M56.27598785,62.53691052 L56.49354748,62.31782949 "/>
        <path d="M52.02799665,63.82451867 L51.90121365,63.95079453 "/>
        <path d="M62.86540749,65.03199996 L62.99219049,64.90420269 "/>
        <path d="M50.70032507,62.53691052 L50.91763114,62.64543677 "/>
        <path d="M52.79148388,64.58800589 L52.79148388,64.27130196 "/>
        <path d="M55.62406966,65.03199996 L55.49728666,64.90420269 "/>
        <path d="M50.91763114,62.64543677 L51.35401822,62.64543677 "/>
        <path d="M52.40910635,65.09539146 L52.53538222,65.03199996 "/>
        <path d="M57.25272408,44.80706867 L65.23979951,58.78362659 "/>
        <path d="M59.42223478,63.76112717 L60.2491135,63.76112717 "/>
        <path d="M53.48879038,60.35903214 L54.35826819,62.64543677 "/>
        <path d="M58.87732144,63.82451867 L58.94071294,63.88740303 "/>
        <path d="M62.35802192,65.03199996 L62.48429779,65.09539146 "/>
        <path d="M55.62406966,63.82451867 L55.49728666,63.95079453 "/>
        <path d="M63.47650155,65.09539146 L64.30033748,65.09539146 "/>
        <path d="M56.06704946,65.09539146 L55.81373703,65.09539146 "/>
        <path d="M61.80905153,62.31782949 L61.91783135,62.10052343 "/>
        <path d="M51.78989818,60.68511802 L51.57259211,60.46781196 "/>
        <path d="M61.1761508,63.76112717 L60.66724384,65.09539146 "/>
        <path d="M58.87732144,64.33469346 L58.68334345,64.39808496 "/>
        <path d="M61.37291801,60.35903214 L60.93830589,60.35903214 "/>
        <path d="M62.22870326,64.90420269 L62.35802192,65.03199996 "/>
        <path d="M59.5637246,60.35903214 L59.5637246,62.64543677 "/>
        <path d="M62.73913162,65.09539146 L62.86540749,65.03199996 "/>
        <path d="M55.88955326,55.6855572 L55.97906206,55.59503414 L56.3076836,55.05975631 L56.45475188,54.50698243 L56.45475188,54.32238638 "/>
        <path d="M62.22870326,63.95079453 L62.16531176,64.08011319 "/>
        <path d="M52.15452608,63.76112717 L52.02799665,63.82451867 "/>
        <path d="M62.73913162,63.76112717 L62.48429779,63.76112717 "/>
        <path d="M51.35401822,60.35903214 L50.91763114,60.35903214 "/>
        <path d="M57.25272408,50.06602751 L57.16194745,50.1555363 L56.83434018,50.69208196 L56.68853973,51.24510941 L56.68853973,51.42919832 "/>
        <path d="M60.28461274,61.23104562 L60.28461274,61.77342329 "/>
        <path d="M61.80905153,60.68511802 L61.59022408,60.46781196 "/>
        <path d="M57.63256595,64.90420269 L57.69595745,64.71428176 "/>
        <path d="M50.48149762,62.31782949 L50.70032507,62.53691052 "/>
        <path d="M52.72530315,64.08011319 L52.66216522,63.95079453 "/>
        <path d="M55.4067636,62.53691052 L55.73259591,62.64543677 "/>
        <path d="M50.46653722,63.76112717 L50.46653722,65.09539146 "/>
        <path d="M55.56067816,64.20816402 L55.62406966,64.27130196 "/>
        <path d="M55.18768258,62.31782949 L55.4067636,62.53691052 "/>
        <path d="M62.74724573,60.35903214 L64.27016313,62.64543677 "/>
        <path d="M55.07915633,61.99199718 L55.18768258,62.31782949 "/>
        <path d="M51.35401822,62.64543677 L51.57259211,62.53691052 "/>
        <path d="M49.26691648,58.78362659 L65.23979951,58.78362659 "/>
        <path d="M56.2569704,65.03199996 L56.06704946,65.09539146 "/>
        <path d="M56.45475188,54.32238638 L56.45475188,54.13677607 L56.3076836,53.58374862 L55.97906206,53.0484708 L55.88955326,52.95921557 "/>
        <path d="M51.77468422,64.27130196 L51.77468422,64.58800589 "/>
        <path d="M56.49354748,62.31782949 L56.60334155,61.99199718 "/>
        <path d="M57.31205852,65.09539146 L57.50324729,65.03199996 "/>
        <path d="M62.48429779,65.09539146 L62.73913162,65.09539146 "/>
        <path d="M50.48149762,60.68511802 L50.37550703,60.90369191 "/>
        <path d="M61.1761508,63.76112717 L61.68378993,65.09539146 "/>
        <path d="M50.70032507,60.46781196 L50.48149762,60.68511802 "/>
        <path d="M62.99219049,63.95079453 L62.86540749,63.82451867 "/>
        <path d="M55.75034553,64.33469346 L56.1301874,64.46122289 "/>
        <path d="M58.11383422,63.76112717 L58.11383422,65.09539146 "/>
        <path d="M56.38603549,63.95079453 L56.2569704,63.82451867 "/>
        <path d="M57.32296186,60.35903214 L58.84714709,60.35903214 "/>
        <path d="M51.90121365,64.90420269 L52.02799665,65.03199996 "/>
        <path d="M60.93830589,62.64543677 L61.37291801,62.64543677 "/>
        <path d="M52.53538222,63.82451867 L52.40910635,63.76112717 "/>
        <path d="M61.59022408,62.53691052 L61.80905153,62.31782949 "/>
        <path d="M59.00385088,64.01570743 L59.00385088,64.14477252 "/>
        <path d="M59.00385088,64.14477252 L58.94071294,64.27130196 "/>
        <path d="M53.26058098,56.7862872 L61.24638858,56.7862872 "/>
        <path d="M51.77468422,64.58800589 L51.83807572,64.77767326 "/>
        <path d="M62.10192026,64.58800589 L62.16531176,64.77767326 "/>
        <path d="M52.02799665,65.03199996 L52.15452608,65.09539146 "/>
        <path d="M51.57259211,60.46781196 L51.35401822,60.35903214 "/>
        <path d="M58.08365986,60.35903214 L58.08365986,62.64543677 "/>
        <path d="M52.66216522,63.95079453 L52.53538222,63.82451867 "/>
        <path d="M57.25272408,52.79389053 L57.4867655,53.02818552 "/>
        <path d="M60.8569112,64.65089026 L61.49412256,64.65089026 "/>
        <path d="M55.65576541,52.72517415 L55.88955326,52.95921557 "/>
        <path d="M62.02610403,61.23104562 L61.91783135,60.90369191 "/>
        <path d="M55.49728666,64.08011319 L55.56067816,64.20816402 "/>
        <path d="M53.48879038,60.35903214 L52.6167769,62.64543677 "/>
        <path d="M53.65386184,63.76112717 L53.65386184,65.09539146 "/>
        <path d="M61.91783135,60.90369191 L61.80905153,60.68511802 "/>
        <path d="M62.16531176,64.08011319 L62.10192026,64.27130196 "/>
        <path d="M58.84993631,52.72517415 L59.08372417,52.95921557 "/>
        <path d="M50.46653722,64.39808496 L51.35401822,64.39808496 "/>
        <path d="M59.42223478,63.76112717 L59.42223478,65.09539146 "/>
        <path d="M63.47650155,63.76112717 L63.47650155,65.09539146 "/>
        <path d="M62.74724573,60.35903214 L62.74724573,62.64543677 "/>
        <path d="M56.68853973,51.42919832 L56.68853973,51.61379437 L56.83434018,52.16682182 L57.16194745,52.70336747 L57.25272408,52.79389053 "/>
        <path d="M50.26571295,61.23104562 L50.26571295,61.77342329 "/>
        <path d="M56.60334155,61.99199718 L56.60334155,60.35903214 "/>
        <path d="M56.86907872,64.90420269 L56.99535459,65.03199996 "/>
        <path d="M59.64892278,54.32238638 L59.64892278,54.13677607 L59.5018545,53.58374862 L59.17323296,53.0484708 L59.08372417,52.95921557 "/>
        <path d="M63.05532842,64.08011319 L62.99219049,63.95079453 "/>
        <path d="M60.39364612,62.10052343 L60.5019188,62.31782949 "/>
        <path d="M62.86540749,63.82451867 L62.73913162,63.76112717 "/>
        <path d="M55.62406966,64.27130196 L55.75034553,64.33469346 "/>
        <path d="M56.80568722,64.71428176 L56.86907872,64.90420269 "/>
        <path d="M55.49728666,63.95079453 L55.49728666,64.08011319 "/>
        <path d="M56.2569704,63.82451867 L56.06704946,63.76112717 "/>
        <path d="M51.35401822,63.76112717 L51.35401822,65.09539146 "/>
        <path d="M50.91763114,60.35903214 L50.70032507,60.46781196 "/>
        <path d="M52.94387704,61.88169597 L54.03370371,61.88169597 "/>
        <path d="M63.47650155,63.76112717 L64.30033748,63.76112717 "/>
        <path d="M62.48429779,63.76112717 L62.35802192,63.82451867 "/>
        <path d="M61.59022408,60.46781196 L61.37291801,60.35903214 "/>
        <path d="M49.26691648,58.78362659 L57.25272408,44.80706867 "/>
        <path d="M55.9511698,62.64543677 L56.27598785,62.53691052 "/>
        <path d="M51.90121365,63.95079453 L51.83807572,64.08011319 "/>
        <path d="M56.32137616,64.58800589 L56.38603549,64.71428176 "/>
        <path d="M58.94071294,63.88740303 L59.00385088,64.01570743 "/>
        <path d="M62.02610403,61.77342329 L62.02610403,61.23104562 "/>
        <path d="M52.53538222,65.03199996 L52.66216522,64.90420269 "/>
        <path d="M58.68334345,63.76112717 L58.87732144,63.82451867 "/>
        <path d="M59.08372417,55.6855572 L59.17323296,55.59503414 L59.5018545,55.05975631 L59.64892278,54.50698243 L59.64892278,54.32238638 "/>
        <path d="M116.52149449,88.82181564 L116.52149449,22.33630331 "/>
        <path d="M51.57259211,62.53691052 L51.78989818,62.31782949 "/>
        <path d="M58.55706758,64.39808496 L59.00385088,65.09539146 "/>
        <path d="M52.72530315,64.77767326 L52.79148388,64.58800589 "/>
        <path d="M60.39364612,60.90369191 L60.28461274,61.23104562 "/>
        <path d="M51.83807572,64.77767326 L51.90121365,64.90420269 "/>
        <path d="M51.78989818,62.31782949 L51.89867799,62.10052343 "/>
        <path d="M51.89867799,60.90369191 L51.78989818,60.68511802 "/>
        <path d="M57.69595745,64.71428176 L57.69595745,63.76112717 "/>
        <path d="M51.83807572,64.08011319 L51.77468422,64.27130196 "/>
        <path d="M52.79148388,64.27130196 L52.72530315,64.08011319 "/>
        <path d="M55.81373703,63.76112717 L55.62406966,63.82451867 "/>
        <path d="M61.91783135,62.10052343 L62.02610403,61.77342329 "/>
        <path d="M58.94071294,64.27130196 L58.87732144,64.33469346 "/>
        <path d="M62.10192026,64.27130196 L62.10192026,64.58800589 "/>
        <path d="M52.40910635,63.76112717 L52.15452608,63.76112717 "/>
        <path d="M62.99219049,64.90420269 L63.05532842,64.77767326 "/>
        <path d="M56.2569704,64.52461439 L56.32137616,64.58800589 "/>
        <path d="M55.65576541,49.99883252 L55.56473522,50.08808775 L55.23738151,50.62311201 L55.09158106,51.17639302 L55.09158106,51.36200333 "/>
        <path d="M57.18527552,65.09539146 L57.31205852,65.09539146 "/>
        <path d="M56.1301874,64.46122289 L56.2569704,64.52461439 "/>
        <path d="M60.28461274,61.77342329 L60.39364612,62.10052343 "/>
        <path d="M62.35802192,63.82451867 L62.22870326,63.95079453 "/>
        <path d="M55.81373703,65.09539146 L55.62406966,65.03199996 "/>
        <path d="M56.38603549,64.71428176 L56.38603549,64.90420269 "/>
        <path d="M0.0107102,22.11620553 L0.01070819,88.60172352 "/>
        <path d="M1.79778294,0.03471254 L1.62180814,0.03471254 L1.09768721,0.17468097 L0.52538875,0.56010129 L0.140222,1.13087836 L0,1.65499928 L0,1.83097408 "/>
        <line x1="0.01070671" y1="22.11620802" x2="0" y2="1.83097408"/>
        <path d="M116.50754187,1.79869154 L116.50754187,1.62271673 L116.36554491,1.09859581 L115.98063172,0.52629735 L115.40985465,0.14113059 L114.88548016,0.0009086 L114.71077319,0.0009086 "/>
        <line x1="116.52149449" y1="22.33630331" x2="116.50754187" y2="1.79869154"/>
        <line x1="116.52149449" y1="88.82181564" x2="116.50628118" y2="109.15707711"/>
        <path d="M114.7095125,110.95384579 L114.88421948,110.95384579 L115.40859396,110.81184883 L115.97937103,110.42693564 L116.36428422,109.85615857 L116.50628118,109.33178409 L116.50628118,109.15707711 "/>
        <path d="M0.00150669,109.19672418 L0.00150669,109.37143115 L0.14172869,109.89580564 L0.52689544,110.4681041 L1.0991939,110.85301729 L1.62331483,110.99476068 L1.79928963,110.99476068 "/>
        <path d="M0.00150669,109.19672418 L0.00150669,109.37143115 L0.14172869,109.89580564 L0.52689544,110.4681041 L1.0991939,110.85301729 L1.62331483,110.99476068 L1.79928963,110.99476068 "/>
        <line x1="0.01070819" y1="88.60172352" x2="0.00150669" y2="109.19672418"/>
        <path d="M19.00209988,1.82887448 L19.00209988,1.65289967 L18.86010292,1.12877875 L18.47518973,0.55648029 L17.90441266,0.17131353 L17.38003817,0.03109154 L17.2053312,0.03109154 "/>
        <path d="M1.79778294,0.03471254 L17.2053312,0.03109154 "/>
        <path d="M99.30615495,0 L99.13018014,0 L98.60605922,0.13996843 L98.03376076,0.52538875 L97.64859401,1.09616582 L97.50837201,1.62028674 L97.50837201,1.79626154 "/>
        <path d="M99.30615495,0 L114.71077319,0.0009086 "/>
        <path d="M97.49937926,109.15698119 L97.49937926,109.33168816 L97.63960126,109.85606265 L98.02476802,110.42836111 L98.59706648,110.8132743 L99.1211874,110.9550177 L99.2971622,110.9550177 "/>
        <path d="M114.7095125,110.95384579 L99.2971622,110.9550177 "/>
        <path d="M17.19340139,110.98666557 L17.36810837,110.98666557 L17.89248286,110.84466861 L18.46325992,110.45975542 L18.84817311,109.88897835 L18.99017007,109.36460387 L18.99017007,109.18989689 "/>
        <path d="M17.19340139,110.98666557 L1.79928963,110.99476068 "/>
        <path d="M97.4679917,92.81466426 L97.4679917,92.63995729 L97.3277697,92.1155828 L96.94260295,91.54328434 L96.37030448,91.15837115 L95.84618356,91.01662775 L95.67020876,91.01662775 "/>
        <line x1="97.4679917" y1="92.81466426" x2="97.49937926" y2="109.15698119"/>
        <path d="M20.75554294,91.02986147 L20.58083597,91.02986147 L20.05646148,91.17008346 L19.48416302,91.55525022 L19.09924983,92.12754868 L18.95750644,92.6516696 L18.95750644,92.82764441 "/>
        <line x1="20.75554294" y1="91.02986147" x2="95.67020876" y2="91.01662775"/>
        <line x1="18.95750644" y1="92.82764441" x2="18.99017007" y2="109.18989689"/>
        <path d="M19.03530266,18.17808735 L19.03530266,18.35279432 L19.17552466,18.87716881 L19.56069141,19.44946727 L20.13298988,19.83438046 L20.6571108,19.97612385 L20.8330856,19.97612385 "/>
        <line x1="19.00209988" y1="1.82887448" x2="19.03530266" y2="18.17808735"/>
        <path d="M95.74377953,19.95817142 L95.9184865,19.95817142 L96.44286099,19.81794942 L97.01515945,19.43278266 L97.40007264,18.8604842 L97.54181603,18.33636328 L97.54181603,18.16038848 "/>
        <line x1="97.50837201" y1="1.79626154" x2="97.54181603" y2="18.16038848"/>
        <line x1="20.8330856" y1="19.97612385" x2="95.74377953" y2="19.95817142"/>
        <circle cx="9.49206992" cy="8.60113361" r="4.00798164"/>
        <circle cx="106.99897692" cy="8.56868587" r="4.00798164"/>
        <circle cx="107.0128245" cy="102.38620017" r="4.00798164"/>
        <circle cx="9.50583266" cy="102.42248155" r="4.00798164"/>
    </g>
</svg>
